<svg width="21" height="24" viewBox="0 0 21 24" fill="none" xmlns="http://www.w3.org/2000/svg">
<circle cx="10.5" cy="12.5" r="10.5" fill="#5B0390"/>
<path d="M9.92 14.58L9.56 5H11.82L11.44 14.58H9.92ZM10.7 19.12C10.3267 19.12 10.0133 18.9933 9.76 18.74C9.50667 18.4867 9.38 18.1867 9.38 17.84C9.38 17.4667 9.50667 17.16 9.76 16.92C10.0133 16.68 10.3267 16.56 10.7 16.56C11.0733 16.56 11.38 16.68 11.62 16.92C11.86 17.16 11.98 17.4667 11.98 17.84C11.98 18.1867 11.86 18.4867 11.62 18.74C11.38 18.9933 11.0733 19.12 10.7 19.12Z" fill="white"/>
</svg>
